<?xml version="1.0" encoding="utf-8"?>
<!-- Generator: Adobe Illustrator 22.0.0, SVG Export Plug-In . SVG Version: 6.00 Build 0)  -->
<svg version="1.1" id="Calque_1" xmlns="http://www.w3.org/2000/svg" xmlns:xlink="http://www.w3.org/1999/xlink" x="0px" y="0px"
	 viewBox="0 0 180 180" style="enable-background:new 0 0 180 180;" xml:space="preserve">
<style type="text/css">
	.st0{fill:#F44336;}
	.st1{fill:#DFD600;}
</style>
<rect x="-189" y="-8" class="st0" width="180" height="180"/>
<g>
	<path class="st1" d="M171.4,97V80.3c-0.1,0-0.1-0.1-0.2-0.1c-0.1,0.1-0.3,0.3-0.4,0.4c-0.2,1.1-0.9,1.9-1.8,2.3
		c-1.3,0.6-2.6,1.1-4,1.5c-2.3,0.6-4.6,0.4-6.9,0.4c-2.7,0-4.9,1-6.8,2.8c-2.5,2.4-3.7,5.4-4.3,8.8c-0.1,0.5-0.3,0.6-0.7,0.6
		c-1.6,0-3.2,0-4.9,0h-1.6c0-0.4,0-0.7,0-1c0-8.4,0-16.8,0-25.2c0-3.3-1.6-5.6-4.4-7.2c-1-0.6-2.2-0.9-3.5-0.7v23.9
		c-0.4-0.3-0.6-0.4-0.8-0.6c-1.2-0.8-2.5-1.3-3.9-1.3c-4,0-7.9,0-11.9,0c-2.3,0-4,1.7-4,4c0,2.5,0,4.9,0,7.4v0.8h-5.6l-11,8l2.7,0.1
		c5.4,0,7.3-0.2,12.7-0.2c9.5,0,19,0,28.5,0c5.1,0,10.3,0,15.4,0c0.1,0,0.2,0,0.4,0c2.1-0.2,2.5-0.1,2.6-0.2l22.5,0.1V97H171.4z
		 M131.9,96.9h-12.7v-4.2c0.2,0,0.5,0,0.7,0c3.8,0,7.5,0,11.3,0c0.6,0,0.8,0.2,0.8,0.8C131.9,94.6,131.9,95.7,131.9,96.9z
		 M163.5,96.9H155c0.4-1.5,0.9-2.9,2.1-3.8c0.2-0.2,0.5-0.3,0.8-0.3c1.9,0,3.7,0,5.7,0V96.9z"/>
	<path class="st1" d="M95.6,87.1c-0.6-0.6-1.2-1.3-1.8-1.8c-4.8-2.8-10.9,0.6-10.9,0.6l-0.8-1.6l-0.6-1.3c-0.7-0.5-1.3-1.2-1.4-2.2
		c0-0.2-0.3-0.3-0.5-0.4c-0.1,0-0.1,0.1-0.2,0.1v16.6H68.7V80.3c-0.1,0-0.1-0.1-0.2-0.1c-0.1,0.1-0.4,0.3-0.4,0.4
		c-0.2,1.1-0.9,1.9-1.9,2.4c-1.1,0.5-2.2,0.9-3.3,1.3c-2.5,0.7-5,0.6-7.5,0.6c-2.5,0-4.7,0.9-6.5,2.6c-1.8,1.6-3,3.7-3.8,6
		c-0.4,1.2-0.6,2.4-0.9,3.6H18.3c0.2-0.1,0.4-0.1,0.5-0.2l0.1,0.2l7.3-2.7L32,92c0,0,5.7-1.8,7.4-6.2c1.2-3.3-2.5-7.4-6.6-7.8
		S0,78,0,78l6.2,6.6h22.2l-6.5,2.6c-0.3,0-0.7,0-1,0c-0.2,0.2-0.5,0.4-0.7,0.6c-0.1,0.1-0.3,0.1-0.5,0.2c-3.8,1.4-7.5,2.9-11.3,4.3
		c-2.4,0.9-3.7,2.5-4.1,5c-0.6,3.8,1.3,6.8,4.9,7.4c1.1,0.2,2.3,0.2,3.5,0.2c7.7,0,15.5,0,23.2,0.1c10.8,0,21.6,0,32.4,0
		c4.5,0,9-0.1,13.6-0.1c1.6,0,3.1,0,4.7,0c0.3,0,0.5,0,0.8,0V92.8c1.5-0.2,2.9-0.2,3.9,1.1c0.2,0.3,0.4,0.5,0.5,0.8l6.8-3.4
		C97.7,89.7,96.7,88.2,95.6,87.1z M60.8,97h-8.6c0.4-1.6,0.9-3,2.3-4c0.2-0.1,0.4-0.2,0.7-0.2c1.8,0,3.7,0,5.6,0V97z"/>
</g>
</svg>
